<svg width="2091" height="532" viewBox="0 0 2091 532" fill="none" xmlns="http://www.w3.org/2000/svg">
<g clip-path="url(#clip0_255_199)">
<path fill-rule="evenodd" clip-rule="evenodd" d="M632.983 78.6677C583.3 128.357 555.388 195.749 555.388 266.02C555.127 300.907 561.783 335.5 574.969 367.8C588.155 400.1 607.611 429.466 632.212 454.202C656.813 478.938 686.071 498.552 718.297 511.912C750.522 525.272 785.075 532.113 819.96 532.039C968.914 532.039 1085.24 413.572 1085.24 266.02C1085.24 195.749 1057.33 128.357 1007.65 78.6677C957.962 28.9789 890.577 1.06396 820.314 1.06396C750.051 1.06396 682.666 28.9789 632.983 78.6677ZM820.117 121.305C900.269 121.305 961.27 186.568 961.27 266.02H961.112C961.112 344.84 901.53 410.025 819.96 410.025C739.099 410.025 680.226 344.84 680.226 266.02C680.226 186.568 739.966 121.305 820.117 121.305Z" fill="#1E0033"/>
<path fill-rule="evenodd" clip-rule="evenodd" d="M336.921 7.09374H161.722V525.103H341.886C466.015 525.103 540.493 475.288 540.493 367.462C540.493 313.548 517.085 276.66 475.236 254.669C507.155 232.757 525.597 199.337 525.597 153.937C525.597 56.7508 461.759 7.09374 336.921 7.09374ZM282.305 205.013V115.63H341.886C385.154 115.63 402.887 129.818 402.887 158.193C402.887 185.859 386.573 205.013 342.596 205.013H282.305ZM282.305 415.779V316.386L344.014 316.307C397.922 316.307 414.236 331.756 414.236 364.545C414.236 397.335 392.956 415.779 344.723 415.779H282.305Z" fill="#1E0033"/>
<path fill-rule="evenodd" clip-rule="evenodd" d="M1108.57 266.02C1108.57 195.749 1136.48 128.357 1186.16 78.6677C1235.85 28.9789 1303.23 1.06396 1373.5 1.06396C1443.76 1.06396 1511.14 28.9789 1560.83 78.6677C1610.51 128.357 1638.42 195.749 1638.42 266.02C1638.42 413.572 1522.1 532.039 1373.14 532.039C1338.26 532.113 1303.7 525.272 1271.48 511.912C1239.25 498.552 1209.99 478.938 1185.39 454.202C1160.79 429.466 1141.34 400.1 1128.15 367.8C1114.96 335.5 1108.31 300.907 1108.57 266.02ZM1514.45 266.02C1514.45 186.568 1453.45 121.305 1373.3 121.305C1293.15 121.305 1233.49 186.568 1233.49 266.02C1233.49 344.84 1292.36 410.025 1373.22 410.025C1454.79 410.025 1514.45 344.84 1514.45 266.02Z" fill="#1E0033"/>
<path fill-rule="evenodd" clip-rule="evenodd" d="M1821.5 7.09374H1666.16L1666.01 524.946H1823.63C1977.55 524.946 2091.04 413.572 2091.04 266.02C2091.04 119.177 1982.52 7.09374 1821.5 7.09374ZM1789.58 409.316V122.014H1815.83C1913 122.014 1966.2 184.44 1966.2 266.02C1966.2 346.259 1908.59 409.316 1817.96 409.316H1789.58Z" fill="#1E0033"/>
<path d="M124.838 152.518H0V524.946H124.838V152.518Z" fill="#1E0033"/>
<path d="M0 7.09378H124.838V115.63H0V7.09378Z" fill="#1E0033"/>
</g>
<defs>
<clipPath id="clip0_255_199">
<rect width="2091" height="532" fill="white"/>
</clipPath>
</defs>
</svg>
